HIERARCHY
ROOT Hips
{
	OFFSET 0.000000 0.000000 0.000000 
	CHANNELS 6 Xposition Yposition Zposition Zrotation Yrotation Xrotation
	JOINT LeftUpLeg
	{
		OFFSET 1.363060 -1.794630 0.839290 
		CHANNELS 3 Zrotation Yrotation Xrotation
		JOINT LeftLeg
		{
			OFFSET 2.448110 -6.726130 0.000000 
			CHANNELS 3 Zrotation Yrotation Xrotation
			JOINT LeftFoot
			{
				OFFSET 2.562200 -7.039590 0.000000 
				CHANNELS 3 Zrotation Yrotation Xrotation
				JOINT LeftToeBase
				{
					OFFSET 0.157640 -0.433110 2.322550 
					CHANNELS 3 Zrotation Yrotation Xrotation
					End Site
					{
						OFFSET 0.000000 0.000000 0.000000 
					}
				}
			}
		}
	}
	JOINT RightUpLeg
	{
		OFFSET -1.305520 -1.794630 0.839290 
		CHANNELS 3 Zrotation Yrotation Xrotation
		JOINT RightLeg
		{
			OFFSET -2.542530 -6.985550 0.000000 
			CHANNELS 3 Zrotation Yrotation Xrotation
			JOINT RightFoot
			{
				OFFSET -2.568260 -7.056230 0.000000 
				CHANNELS 3 Zrotation Yrotation Xrotation
				JOINT RightToeBase
				{
					OFFSET -0.164730 -0.452590 2.363150 
					CHANNELS 3 Zrotation Yrotation Xrotation
					End Site
					{
						OFFSET 0.000000 0.000000 0.000000 
					}
				}
			}
		}
	}
	JOINT Spine
	{
		OFFSET 0.028270 2.035590 -0.193380 
		CHANNELS 3 Zrotation Yrotation Xrotation
		JOINT Spine1
		{
			OFFSET 0.056720 2.048850 -0.042750 
			CHANNELS 3 Zrotation Yrotation Xrotation
			JOINT Neck1
			{
				OFFSET -0.054170 1.746240 0.172020 
				CHANNELS 3 Zrotation Yrotation Xrotation
				JOINT Head
				{
					OFFSET 0.104070 1.761360 -0.123970 
					CHANNELS 3 Zrotation Yrotation Xrotation
					End Site
					{
						OFFSET 0.000000 0.000000 0.000000 
					}
				}
			}
			JOINT LeftArm
			{
				OFFSET 3.362410 1.200890 -0.311210 
				CHANNELS 3 Zrotation Yrotation Xrotation
				JOINT LeftForeArm
				{
					OFFSET 4.983000 -0.000000 -0.000000 
					CHANNELS 3 Zrotation Yrotation Xrotation
					JOINT LeftHand
					{
						OFFSET 3.483560 -0.000000 -0.000000 
						CHANNELS 3 Zrotation Yrotation Xrotation
						JOINT LeftHandIndex1
						{
							OFFSET 0.715260 -0.000000 -0.000000 
							CHANNELS 3 Zrotation Yrotation Xrotation
							End Site
							{
								OFFSET 0.000000 0.000000 0.000000 
							}
						}
					}
				}
			}
			JOINT RightArm
			{
				OFFSET -3.136600 1.374050 -0.404650 
				CHANNELS 3 Zrotation Yrotation Xrotation
				JOINT RightForeArm
				{
					OFFSET -5.241900 -0.000000 -0.000000 
					CHANNELS 3 Zrotation Yrotation Xrotation
					JOINT RightHand
					{
						OFFSET -3.444170 -0.000000 -0.000000 
						CHANNELS 3 Zrotation Yrotation Xrotation
						JOINT RightHandIndex1
						{
							OFFSET -0.622530 -0.000000 -0.000000 
							CHANNELS 3 Zrotation Yrotation Xrotation
							End Site
							{
								OFFSET 0.000000 0.000000 0.000000 
							}
						}
					}
				}
			}
		}
	}
}
MOTION
Frames: 10
Frame Time: 0.041667
-3.119905 18.349618 13.956186 -0.460782 27.665520 1.289905 -8.751071 -11.063080 -16.496831 8.626963 16.636001 55.203557 0.552181 -5.175356 8.219956 0.980000 -6.301700 -17.662500 20.552756 -4.696195 -12.079255 -1.557830 -8.074886 21.877911 1.608528 -9.113864 -5.522421 -0.179200 2.726700 -7.518800 2.122515 7.455429 -0.103819 1.998101 3.719347 2.639906 -1.614089 27.259925 23.562612 2.062200 11.721700 13.481100 -93.190618 -4.850414 0.637350 9.612048 -14.452182 -0.401334 0.214398 -1.703921 27.531215 -7.125000 0.000000 0.000000 88.825656 13.766334 23.361839 -16.967655 27.696780 -4.268157 0.702465 0.378012 -1.631131 7.125000 0.000000 0.000000 
-3.106131 18.351105 14.051611 -0.890992 27.403939 1.182225 -8.347636 -11.156448 -17.157875 8.572393 16.606282 54.994373 0.500576 -4.625729 7.193949 0.777700 -5.630400 -15.715600 21.083695 -4.728876 -11.864898 -1.548342 -8.039005 21.783647 1.566074 -8.945631 -5.588585 -0.152800 2.519100 -6.942700 2.194011 7.504072 -0.111987 1.902892 3.756454 2.753851 -1.459950 27.126421 23.620998 2.139400 11.650900 13.530400 -93.329666 -4.636331 0.060147 9.364782 -13.988290 -0.298008 0.199977 -1.726772 28.363213 -7.125000 0.000000 0.000000 88.708349 14.506479 24.346611 -17.389500 28.322659 -4.513929 0.686854 0.383661 -2.337744 7.125000 0.000000 0.000000 
-3.084430 18.343574 14.143271 -1.042964 27.205762 1.108847 -8.303160 -11.366012 -17.637085 8.465536 16.538253 54.614542 0.459309 -4.234893 6.148255 0.659900 -5.195500 -14.467000 21.279623 -4.980625 -11.637823 -1.551435 -8.052255 21.829999 1.464842 -8.553751 -5.889152 -0.171100 2.664500 -7.346000 2.128558 7.743139 -0.225115 1.541776 3.895241 2.498489 -1.189251 26.878206 23.919146 2.206100 11.561500 13.679800 -93.289313 -4.293166 -0.633665 9.004929 -13.324466 -0.201272 0.162634 -1.712321 29.405278 -7.125000 0.000000 0.000000 88.675027 14.907542 24.833137 -17.793023 28.888729 -4.734844 0.679260 0.389869 -2.852320 7.125000 0.000000 0.000000 
-3.064612 18.327025 14.230373 -0.701853 26.944891 1.214645 -8.806552 -11.423613 -17.943403 8.297179 16.426430 54.029536 0.420187 -3.870103 4.892882 0.812700 -5.752700 -16.068600 21.003898 -5.187365 -11.389616 -1.567459 -8.117349 22.007982 1.399153 -8.312533 -6.251118 -0.231100 3.094000 -8.540500 2.015476 7.950248 -0.202634 1.370607 4.005010 2.500343 -1.726446 26.952038 23.908420 1.967300 11.582600 13.840600 -93.344288 -4.066252 -1.890971 8.746879 -12.888990 -0.171818 0.113435 -1.669901 30.876074 -7.125000 0.000000 0.000000 88.569387 15.554719 25.508102 -18.278130 29.559444 -5.004402 0.671160 0.400281 -3.452429 7.125000 0.000000 0.000000 
-3.049847 18.319593 14.319655 -0.201453 26.761376 1.526874 -9.423688 -11.548103 -18.393008 8.051484 16.262328 53.180716 0.387216 -3.496509 3.865284 0.917400 -6.102800 -17.082900 20.588600 -5.199178 -11.301705 -1.595567 -8.200831 22.254545 1.375474 -8.232245 -6.505397 -0.279100 3.397700 -9.387900 1.878227 8.007542 -0.210787 1.335700 4.018842 2.536040 -0.739313 26.876634 24.053612 2.438600 11.552000 13.674100 -93.354200 -3.978764 -3.594237 8.485792 -12.459539 -0.125491 0.055637 -1.638740 32.752961 -7.125000 0.000000 0.000000 88.500323 16.140135 26.451551 -18.859531 30.360535 -5.346179 0.656234 0.413187 -4.420633 7.125000 0.000000 0.000000 
-3.033992 18.314143 14.414089 -0.271325 26.780982 1.540743 -9.399581 -11.750736 -18.846104 7.750042 16.051625 52.127913 0.365188 -3.195130 3.299125 0.821400 -5.782900 -16.155700 20.748362 -5.151351 -11.110018 -1.621876 -8.268410 22.457150 1.396209 -8.331327 -6.831152 -0.286100 3.440100 -9.506600 1.839751 8.021204 -0.262264 1.200325 4.037072 2.452458 -0.974713 27.052215 23.967305 2.337900 11.634600 13.683500 -93.365108 -3.635773 -4.174173 8.446757 -12.392668 -0.100009 0.055952 -1.652928 33.380862 -7.125000 0.000000 0.000000 88.481838 16.555136 27.141897 -19.441656 31.137601 -5.699213 0.633334 0.420359 -5.150114 7.125000 0.000000 0.000000 
-3.019327 18.305919 14.509217 -0.658808 26.518903 1.322416 -9.027221 -11.590615 -19.129672 7.405736 15.804561 50.917451 0.359291 -3.057447 2.826050 0.695000 -5.329400 -14.850400 21.224511 -4.854004 -10.752248 -1.644649 -8.319805 22.615433 1.427150 -8.476727 -7.247720 -0.254800 3.247800 -8.969400 1.889622 8.099117 -0.256645 1.098607 4.085248 2.442360 -0.657684 27.112850 24.127502 2.529500 11.639300 13.726600 -93.541483 -3.100609 -4.076801 8.657519 -12.775425 -0.137584 0.085537 -1.679686 33.049380 -7.125000 0.000000 0.000000 88.399150 17.089215 27.801313 -20.033828 31.907343 -6.051454 0.622592 0.428709 -5.464697 7.125000 0.000000 0.000000 
-3.003076 18.305919 14.603751 -0.901651 26.151276 1.257974 -8.810552 -11.453434 -19.363495 7.035325 15.524104 49.598126 0.361412 -2.998467 2.265076 0.586700 -4.904300 -13.635900 21.525571 -4.601351 -10.538750 -1.673013 -8.387033 22.826626 1.398715 -8.395731 -7.702185 -0.235000 3.120200 -8.613500 1.896329 8.253577 -0.241203 0.968733 4.171671 2.494598 -0.684443 27.169221 23.980863 2.578100 11.630900 13.700900 -93.658481 -2.722500 -3.611438 8.810420 -13.046640 -0.178668 0.104358 -1.685966 32.347648 -7.125000 0.000000 0.000000 88.236579 17.600043 28.598615 -20.676732 32.712264 -6.426477 0.621244 0.443406 -6.108048 7.125000 0.000000 0.000000 
-2.984843 18.287091 14.693825 -1.053320 26.127295 1.297966 -8.726836 -11.564864 -19.711970 6.634917 15.203185 48.145067 0.348803 -2.771407 1.808978 0.728000 -5.451700 -15.201500 21.747328 -4.711967 -10.427495 -1.701149 -8.457758 23.046247 1.354831 -8.258549 -8.127099 -0.235000 3.120200 -8.613700 1.866614 8.344495 -0.276860 0.803449 4.229126 2.482283 -1.034631 27.091299 23.690012 2.402000 11.599300 13.628500 -93.692379 -2.480858 -3.135238 8.888023 -13.169565 -0.189910 0.123924 -1.698561 31.767930 -7.125000 0.000000 0.000000 88.145704 17.900852 28.967482 -21.348050 33.531386 -6.827770 0.616068 0.449402 -6.614391 7.125000 0.000000 0.000000 
-2.964628 18.252707 14.778152 -0.989056 26.149362 1.447356 -8.916617 -11.592134 -20.091994 6.181902 14.818725 46.470572 0.326772 -2.459970 1.597292 0.991000 -6.335700 -17.761600 21.735439 -4.856404 -10.362374 -1.729896 -8.532052 23.271929 1.315072 -8.129034 -8.401350 -0.228300 3.075600 -8.489400 1.794548 8.408743 -0.335828 0.658249 4.269664 2.395216 -1.521918 27.007170 23.322850 2.153600 11.568000 13.518800 -93.731015 -2.366853 -3.571183 8.902368 -13.206326 -0.195462 0.124482 -1.698572 31.849888 -7.125000 0.000000 0.000000 88.185330 17.991427 29.070976 -22.192566 34.527066 -7.345899 0.605221 0.449892 -6.809578 7.125000 0.000000 0.000000 
